<?xml version="1.0" encoding="UTF-8" standalone="no"?>
<!-- Created with Inkscape (http://www.inkscape.org/) -->

<svg
   version="1.1"
   id="svg1"
   width="86"
   height="60"
   viewBox="0 0 86 60"
   sodipodi:docname="sleeping.svg"
   inkscape:version="1.3.2 (091e20e, 2023-11-25, custom)"
   xmlns:inkscape="http://www.inkscape.org/namespaces/inkscape"
   xmlns:sodipodi="http://sodipodi.sourceforge.net/DTD/sodipodi-0.dtd"
   xmlns="http://www.w3.org/2000/svg"
   xmlns:svg="http://www.w3.org/2000/svg">
  <defs
     id="defs1" />
  <sodipodi:namedview
     id="namedview1"
     pagecolor="#ffffff"
     bordercolor="#000000"
     borderopacity="0.25"
     inkscape:showpageshadow="2"
     inkscape:pageopacity="0.0"
     inkscape:pagecheckerboard="0"
     inkscape:deskcolor="#d1d1d1"
     inkscape:zoom="1.79375"
     inkscape:cx="-79.163763"
     inkscape:cy="-34.285714"
     inkscape:window-width="1920"
     inkscape:window-height="1057"
     inkscape:window-x="-8"
     inkscape:window-y="-8"
     inkscape:window-maximized="1"
     inkscape:current-layer="g1" />
  <g
     inkscape:groupmode="layer"
     inkscape:label="Image"
     id="g1">
    <g
       id="g2"
       transform="translate(0.39420585,0.78841208)">
      <path
         style="fill:#e4403e"
         d="m 79.956544,38.195384 c -0.939497,2.973918 -3.735377,7.260647 -5.660377,6.935928 -1.925,-0.32472 -22.065505,-28.244135 -23.165505,-28.698196 -1.854379,-0.765455 10.751575,-7.4231265 13.400558,-8.4658305 2.455173,-0.9664146 5.837939,-0.4916607 10.639229,1.8852494 3.553776,1.7593201 6.175172,6.6186571 7.382393,8.6858771 1.04387,1.7875 1.188926,15.170646 1.000797,15.156872 -0.188128,-0.01377 -0.974268,-3.802291 -3.597095,4.5001 z M 40.482519,13.548284 C 38.469582,11.64984 35.276045,9.5861476 33.385769,8.9623003 l -3.436865,-1.1342677 2.505925,-1.9711614 2.505926,-1.9711613 8.443574,6.0321123 c 4.047972,2.8918818 3.846005,7.4271078 3.073929,7.4271078 -0.227755,0 -3.982802,-1.898202 -5.995739,-3.796646 z m 8.496952,2.1349 C 46.663737,15.04968 44.45514,8.8469077 43.773374,8.1594077 c -2.09853,-2.1161772 6.7097,-1.034002 12.194378,1.6851468 5.409927,2.6820895 -0.592202,7.5883735 -6.988281,5.8386295 z"
         id="path9"
         sodipodi:nodetypes="sssssssssscccsssssss" />
      <path
         style="fill:#d73b3a"
         d="m 77.962226,18.91572 c -2.400326,-2.1383 -2.582723,-2.449189 -0.594689,-1.013625 1.577146,1.13886 3.189646,1.871581 3.583334,1.628269 0.393687,-0.243313 0.715796,0.212818 0.715796,1.013625 0,1.8276 0.345264,1.97936 -3.704441,-1.628269 z M 43.595393,17.105408 c -1.037623,-1.146561 -1.32854,-2.152298 -0.729634,-2.522442 0.547824,-0.338575 1.278696,-0.158249 1.62416,0.400722 0.345463,0.558972 0.264057,1.023203 -0.180902,1.031625 -0.444959,0.0084 -0.147049,0.433954 0.662023,0.945627 0.809071,0.511673 1.218813,1.182541 0.910536,1.490818 -0.308278,0.308277 -1.33706,-0.29758 -2.286183,-1.34635 z M 58.5,15 C 56.869592,14.29939 56.812487,14.127582 58.190983,14.070285 59.121024,14.031628 60.160081,14.45 60.5,15 c 0.710664,1.149879 0.675913,1.149879 -2,0 z M 72,15 C 71.098708,14.41754 70.975367,14.024514 71.690983,14.015313 72.346024,14.006891 73.160081,14.45 73.5,15 c 0.767305,1.241525 0.421123,1.241525 -1.5,0 z M 36.142198,11.981102 C 30.375034,8.1916821 30.196223,7.9391584 34.144579,9.1599778 c 1.845482,0.570617 4.163929,2.1180562 5.152106,3.4387542 0.988177,1.320697 1.663177,2.366275 1.5,2.323505 -0.163177,-0.04277 -2.257696,-1.36628 -4.654487,-2.941135 z M 50.5,13.044852 C 49.045888,12.452609 49.63195,12.267085 52.647187,12.365137 54.928139,12.439312 56.589081,12.8375 56.33817,13.25 55.76236,14.196633 53.098058,14.103012 50.5,13.044852 Z M 63.629163,13.20899 C 63.360284,12.773934 64.683726,12.598167 66.570146,12.818396 68.456566,13.038625 70,13.394579 70,13.609406 70,14.361985 64.11308,13.991984 63.629163,13.20899 Z M 37.924314,7.25 35.5,4.5 38.25,6.924314 C 39.7625,8.2576867 41,9.4951867 41,9.674314 41,10.458588 40.190201,9.8202891 37.924314,7.25 Z M 31,6.6224447 c 0,-0.2076554 0.7875,-0.9951554 1.75,-1.75 C 34.336056,3.6285741 34.371426,3.6639444 33.127555,5.25 31.821186,6.915748 31,7.4454789 31,6.6224447 Z"
         id="path8"
         sodipodi:nodetypes="sssssssscssssssssssssssssssssssssscsssssss" />
      <path
         style="fill:#9a2426"
         d="m 57.621585,49.880371 c 0.0091,-2.279356 1.730778,-2.873669 2.202699,-2.130445 0.629254,0.991007 -3.092575,-1.851742 -1.630255,-2.92102 1.716887,-1.255418 5.877417,1.39032 2.709321,0.26804 -3.25231,-1.152112 -3.526262,-2.768033 -1.671279,-4.149541 2.730288,-2.033396 5.86224,-1.170016 8.794482,1.548826 2.415285,2.239508 3.152218,2.152244 2.710637,1.395045 -0.640098,-1.097604 -1.39073,-1.463472 -3.611878,-3.072463 -3.293588,-2.385863 -5.991364,-0.649312 -8.301564,0.01324 C 56.016115,41.637272 56.676182,39.430867 56.14212,34.333087 55.396334,27.214335 50.777552,22.106572 49.192779,16.403923 L 43.010438,7.4017225 54.331013,13.664976 c 3.690989,2.042088 5.632901,1.318073 6.364696,0.975843 2.735161,-1.279123 2.502391,-0.551338 4.549921,1.373662 2.04753,1.925 6.109398,7.66993 8.905921,12.34493 6.401162,10.700943 4.330024,12.020306 3.21851,12.020306 -0.519791,0 -1.851667,-2.874857 -2.718819,-4.702245 -2.445143,-5.152757 -9.577236,-11.420351 -12.365791,-12.480557 -4.321154,-1.6429 0.315016,-1.71532 1.260304,0.367026 1.182504,2.604903 7.143827,5.185644 8.631214,7.481181 1.487386,2.295537 12.625589,-19.049121 11.876004,-1.035278 -0.02251,0.540983 -6.169046,9.239846 -5.887421,11.120343 0.492912,3.291323 -3.453521,4.304513 -9.996995,8.63636 -3.738612,2.475 -8.91198,7.089024 -9.32448,7.272357 -0.4125,0.183334 -1.230914,-5.050203 -1.222492,-7.158537 z m -5.712177,2.641844 c 0,-0.55 1.077177,-5.459299 1.627177,-5.799218 0.55,-0.339919 3.346093,-5.01438 5.77352,-3.764376 2.330231,1.199953 -1.774042,7.828638 -2.324042,8.168557 -0.55,0.339919 -5.076655,1.945037 -5.076655,1.395037 z M 14.096917,41.147037 C 11.015989,38.539424 6.3340198,35.117355 4.8303672,33.840783 L 1.9320557,31.380172 7.3536073,26.37127 c 4.8430657,-4.474445 7.8960067,-6.28471 7.9110847,-3.002803 0.01038,2.259317 0.38968,4.112633 8.50356,10.090527 2.418444,1.781786 6.225281,4.518039 7.054294,5.782457 1.478989,2.255767 0.378751,4.855283 -2.150394,3.702927 -1.417653,-0.645926 -4.866643,-3.392775 -5.194426,-4.698767 -0.327783,-1.305992 -0.513783,-1.990493 -0.742184,-1.155019 -0.09525,0.348432 -0.241729,-0.603 0.332402,3.571429 0.378222,2.75 -0.110169,5.727708 -0.57428,5.722821 -0.464111,-0.0049 -5.315818,-2.630192 -8.396747,-5.237805 z m 32.797289,1.06631 C 38.979997,39.105261 19.531634,29.138608 18.445788,27.383049 17.903116,26.505676 16.214176,23.183541 16.55959,21.807303 17.389263,18.50162 24.87912,7.972984 29.375975,4.2482536 31.359859,2.6050085 36.480106,2.4366397 35.47413,3.6135152 c -1.806152,2.1129886 -4.329164,3.346391 2.56856,7.8085068 3.823051,2.473118 7.112864,4.258532 7.491373,4.870973 0.37851,0.612441 3.052727,1.984854 3.473444,1.724837 1.546959,-0.956073 6.998498,21.89323 6.00294,24.487613 -0.707646,1.844095 -1.985265,2.115672 -8.116241,-0.292098 z M 39.423177,26.444742 c 0.364851,2.143524 -3.471857,-3.044716 -5.388628,-4.178058 -2.694768,-1.593354 -3.481679,-1.13164 1.374393,2.138276 5.626616,3.788775 3.653542,-0.07931 4.014235,2.039782 z m 28.879333,0.142249 c -2.983627,-4.939599 -0.178167,-14.865178 7.539169,-6.355866 1.660365,2.110811 1.828088,10.13411 0.689451,10.13411 -0.141505,0 -6.744261,-1.320786 -8.22862,-3.778244 z M 36.08994,5.5580395 C 34.791509,4.4763376 34.257816,2.5072427 34.783504,2.5072427 c 0.525688,0 2.7558,1.8362389 3.751286,2.9362389 2.28688,2.5269737 0.610994,2.6603317 -2.44485,0.1145579 z"
         id="path6"
         sodipodi:nodetypes="ssssssssssscssssssssssssssssssssscsssssssscssssssssssssssssssssssss" />
      <path
         style="fill:#4d1016"
         d="M 12.924314,39.25 10.5,36.5 13.25,38.924314 C 15.820289,41.190201 16.458588,42 15.674314,42 c -0.179127,0 -1.416627,-1.2375 -2.75,-2.75 z M 66.5,25.5 c -66.89420585,-26.28841208 -66.89420585,-26.28841208 0,0 z M 24.333333,9.6666667 c 0,-0.7333334 0.592856,-1.3333334 1.317457,-1.3333334 0.984499,0 1.037796,0.3369711 0.210889,1.3333334 C 25.253066,10.4 24.660211,11 24.544222,11 24.428233,11 24.333333,10.4 24.333333,9.6666667 Z M 28,5.7448894 c 0,-0.275 0.634938,-1.0269513 1.410972,-1.671003 1.087087,-0.9022014 1.582985,-0.8729213 2.160326,0.1275553 0.412144,0.7142071 0.38111,0.9649625 -0.06896,0.5572342 C 31.052261,4.3509477 30.080114,4.5185478 29.342009,5.1311207 28.603904,5.7436935 28,6.0198894 28,5.7448894 Z"
         id="path4"
         sodipodi:nodetypes="scsssccsssssssssss" />
      <path
         style="fill:#2e0a15"
         d="M 77.983688,37.489919 C 77.424717,37.144455 77.631862,36.526149 77.542705,35.930902 77.366379,34.753684 77.393416,35.68986 77.219532,35 77.098749,34.520812 75.808446,33.875 75.181954,32.5 74.246526,30.446959 74.30722,30 75.521439,30 c 2.055645,0 1.924587,-5.436353 -0.218521,-9.064347 -1.935131,-3.275916 -3.416076,-4.101786 -5.284551,-2.947004 -0.995951,0.615531 -0.565157,1.892832 1.840684,5.457611 3.430591,5.083171 4.554936,7.435273 3.107396,7.435273 -0.535876,0 -2.639811,-3.282995 -3.525585,-4.995892 -0.885773,-1.712898 -4.506337,-5.214568 -6.689281,-7.802658 -3.960356,-4.695383 -11.73212,-9.1632282 -1.550558,-4.130785 2.324349,1.148856 3.419997,5.731128 5.757333,3.418429 1.747932,-1.729507 5.761174,-0.511195 8.078239,3.41597 1.789633,3.033202 2.072014,4.632216 1.570937,8.895605 -0.673511,5.73052 0.257635,7.229255 2.768026,4.455305 C 85.050495,30.076748 82.096745,16.5808 78.447715,13.341563 77.437426,12.444731 77,12.305726 77,11.718697 c 0,-2.2425521 5.026452,3.783702 6.60621,7.920238 1.994803,5.223318 1.467359,12.116041 -1.231747,16.096637 -1.030954,1.520435 -1.430139,4.531884 -2.432234,5.535445 -12.903753,12.922619 0.0066,-2.566593 -1.958541,-3.781098 z M 67.690743,29.75 C 65.260202,26.197216 61.217308,21.853493 60.49355,22.017269 60.130431,22.099438 59.570833,21.904167 59.25,21.583333 58.929167,21.2625 59.451282,21 60.410256,21 c 1.686951,0 4.670716,2.649406 9.333131,8.287265 1.560158,1.886565 6.109312,9.298101 5.150724,9.298101 -0.758108,0 -6.356766,-7.597866 -7.203368,-8.835366 z M 52.502551,25.755744 C 52.110885,24.796403 50.846163,24.987361 51,24.5 51.376757,23.306423 50.555479,22.377155 50.383761,21.557681 46.587462,19.723089 44.066268,12.626804 39.133638,6.8912311 37.282138,4.751054 35.242318,3 34.600704,3 29.117634,3 7.1717272,31.642317 18.001273,16 20.804704,11.950693 28,4.3323824 28,5.4134435 28,5.8158877 29.185686,5.2124992 30.634859,4.0725801 34.134388,1.3198501 37.14133,1.4570852 40,4.5 c 1.291745,1.375 3.282687,2.5355263 4.424314,2.5789474 1.141627,0.043421 1.516781,0.3047226 0.833676,0.5806701 -1.570484,0.6344127 -0.0052,3.9429485 3.236132,6.8403825 3.642291,3.255812 6.937282,9.255264 6.055679,11.522648 -0.711419,1.829688 -1.395771,1.328818 -2.04725,-0.266904 z m 2.19034,-15.064121 C 51.49898,8.9571706 50.043348,7.2686028 50.63789,7.4128054 c 2.499899,0.6063359 1.991799,0.4312787 3.988198,1.6651216 2.802403,1.731981 4.166277,1.349317 5.629568,0.801864 9.111621,-3.4088792 5.531748,-1.3471462 1.119962,1.068344 -1.184326,0.648429 -2.620033,1.588458 -2.693415,1.545881 -0.07338,-0.04258 -0.795402,-0.06794 -3.989312,-1.802393 z M 74,10 C 60.613009,6.1102747 70.639222,7.8927903 71.329737,8.080887 c 1.767609,0.4814985 6.025466,2.902214 6.365385,3.452214 C 78.462427,12.774626 76.196535,10.638225 74,10 Z M 64,8 c 0.867295,-0.4611715 2.199638,-0.7968096 3.061595,-0.6064287 0.966426,0.2134553 2.837594,1.3251429 0.0051,0.7542559 C 64.133498,7.5566539 55.575949,12.479365 64,8 Z"
         id="path3"
         sodipodi:nodetypes="sssssssssssssssssssssssssssssssssssssssscsssssssssssssssss" />
      <path
         style="fill:#090306"
         d="M 57,55.391592 C 57,53.183077 56.65378,52.87008 54.741692,53.349983 51.026867,54.282345 49.829756,52.882037 51.53377,49.597547 52.340197,48.043159 53,46.457988 53,46.074946 c 0,-0.383043 -2.665693,-1.494942 -5.923763,-2.470888 -3.25807,-0.975945 -7.584468,-2.664531 -9.614217,-3.752412 -4.44321,-2.381417 -7.122364,-1.881887 -5.326846,0.993194 0.649257,1.039626 0.900712,2.619258 0.55879,3.510294 -0.558013,1.454158 -0.972572,1.413032 -4.048125,-0.401588 l -3.426446,-2.021653 -1.057677,3.034054 C 23.579994,46.634676 22.476413,48 21.709314,48 20.942216,48 17.680289,45.488987 14.460588,42.419971 11.240887,39.350956 6.895104,35.96681 4.8032929,34.899648 2.7114818,33.832485 1,32.719624 1,32.426622 c 0,-0.293001 1.0962431,-2.145996 2.4360958,-4.117767 2.7312643,-4.019417 7.1514092,-7.292332 9.8618702,-7.302266 0.988881,-0.0036 2.777163,-1.528533 4.233476,-2.965648 L 20.106325,15.5 18.553162,18.70034 c -2.300418,4.740084 -1.917349,6.921612 1.696838,9.663269 5.293738,4.015734 25.629834,13.810586 29.848328,14.376405 L 54,43.263338 53.984944,39.381669 C 53.976663,37.246751 53.321414,33.7 52.528836,31.5 c -0.792577,-2.2 -1.460802,-4.873508 -1.484943,-5.94113 -0.04345,-1.921506 -0.02905,-1.921506 1.424304,0 1.448866,1.915573 1.469496,1.914798 1.566895,-0.05887 0.164938,-3.342233 2.933446,6.729375 2.949727,10.73087 L 57,39.961739 61.25,39.423251 c 3.517978,-0.445739 4.766722,-0.113401 7.25,1.929494 1.65,1.357391 2.719006,2.751813 2.375568,3.098717 C 70.532131,44.798366 68.89217,43.938703 67.231212,42.541099 65.570254,41.143494 63.549435,40 62.740503,40 60.335151,40 56.083672,43.915665 53.951776,48.094526 52.019463,51.882174 52.016211,52 53.84398,52 c 1.234144,0 2.422382,-1.294322 3.442649,-3.75 l 1.558021,-3.75 -0.560007,5.75 c -0.369344,3.792333 -0.19276,5.75 0.518659,5.75 0.593265,0 1.360045,-0.455284 1.703954,-1.011741 C 61.362115,53.605069 72.898749,46 74.142143,46 c 1.493343,0 -1.013178,2.14264 -6.81528,5.82588 -2.845226,1.806181 -5.712826,3.93425 -6.372445,4.729043 C 59.029738,58.87402 57,58.276902 57,55.391592 Z M 22.681904,40.75 C 22.141775,35.997561 22.223348,35.683968 23.542613,37.44113 24.344176,38.508751 25,39.674019 25,40.030615 25,40.616908 29.451809,43 30.547053,43 c 0.249121,0 0.438726,-0.5625 0.421346,-1.25 -0.04852,-1.919367 -4.2112,-6.225894 -9.078718,-9.392452 C 16.507928,28.856455 15.072935,27.159972 15.031803,24.25 15.013327,22.942814 14.378815,22 13.517559,22 11.869881,22 3,30.107009 3,31.612975 c 0,0.525696 1.3284872,1.740567 2.9521937,2.699714 1.6237065,0.959147 5.5612063,3.977171 8.7500003,6.706721 7.624102,6.526095 8.747727,6.488159 7.97971,-0.26941 z M 74.813,41.5 C 74.187842,36.774316 74.25194,36.556168 75.607657,38.795478 76.175228,39.732965 76.347679,41.625 75.990881,43 75.421526,45.194136 75.277418,45.010617 74.813,41.5 Z M 35.067001,24.724603 c -2.438149,-1.706432 -3.934389,-3.268807 -3.324976,-3.471945 1.527925,-0.509308 8.230364,3.95921 8.245596,5.497342 0.01522,1.537221 0.390143,1.691543 -4.92062,-2.025397 z m 12.900491,-5.277202 c -1.207595,-1.95393 -2.024453,-3.723774 -1.81524,-3.932987 0.209213,-0.209213 1.39898,1.389457 2.643927,3.5526 2.820878,4.901382 2.15449,5.207269 -0.828687,0.380387 z M 44.234103,7.0904052 c 0.721875,-0.2888706 6.809684,-0.024892 6.794716,0.4448006 -0.01614,0.5065077 1.936788,1.0041805 -3.612152,0.3858465 C 46.257908,7.7919285 43.43637,7.4096315 44.234103,7.0904052 Z"
         id="path2"
         sodipodi:nodetypes="ssssssssscsssssssscssscsssssscsssssssscsssssssssssssssssssssssssssssssssss" />
    </g>
  </g>
</svg>
